# xmcd
#
# Track frame offsets:
#	150
#	18778
#	34052
#	51314
#	69489
#	87418
#	100255
#	115972
#	129670
#	142908
#	157014
#
# Disc length: 2416 seconds
#
# Revision: 1
# Processed by: cddbd v1.5.2PL0 Copyright (c) Steve Scherf et al.
# Submitted via: audiograbber 1.81.03
#
DISCID=92096e0b
DTITLE=James`McKenty]p[The`Spades - Let It Grow
DYEAR=2007
DGENRE=Blues
TTITLE0=Snub Harbour Falcons
TTITLE1=Ultrasound 2
TTITLE2=On My Mind
TTITLE3=In The Movies
TTITLE4=The`Next Round
TTITLE5=The`Protestor
TTITLE6=Ultrasound 1
TTITLE7=Please Stand By
TTITLE8=The`Rising Sons
TTITLE9=Head Like A Hurricane
TTITLE10=Great Asteroid
EXTD=
EXTT0=
EXTT1=
EXTT2=
EXTT3=
EXTT4=
EXTT5=
EXTT6=
EXTT7=
EXTT8=
EXTT9=
EXTT10=
PLAYORDER=
